<svg width="841.89" height="481.89" xmlns="http://www.w3.org/2000/svg">
<path d="M 170.0051 343.9957 L 166.7611 341.1327 C 162.6581 345.7137 157.3141 349.2437 150.4441 349.2437 C 139.2801 349.2437 130.4061 339.8927 130.4061 328.1557 L 130.4061 327.9647 C 130.4061 316.3237 138.9941 307.0677 150.0621 307.0677 C 157.3141 307.0677 162.0851 310.7897 166.2841 315.0837 L 169.6231 311.6487 C 165.0431 306.8777 159.3181 302.6787 150.1581 302.6787 C 136.2261 302.6787 125.3481 314.5107 125.3481 328.1557 L 125.3481 328.3467 C 125.3481 341.9917 136.1311 353.6327 150.1581 353.6327 C 159.1271 353.6327 165.0431 349.6257 170.0051 343.9957 M 222.1051 303.8237 L 216.9521 303.8237 L 199.3951 347.3357 L 179.1661 303.8237 L 173.7271 303.8237 L 197.1051 352.2017 C 193.4791 360.6947 190.1391 363.6527 185.0821 363.6527 C 181.4561 363.6527 179.3571 363.0797 176.7811 361.8397 L 175.1591 365.9427 C 178.4031 367.3737 181.0751 368.0417 184.7961 368.0417 C 191.7621 368.0417 196.7231 364.4157 201.0171 354.2057" fill="black"/>
<path d="M 277.6391 328.1557 L 277.6391 327.9647 C 277.6391 312.1257 265.7121 302.6787 253.9751 302.6787 C 244.3381 302.6787 238.1351 308.3087 233.9371 314.7017 L 233.9371 282.8317 L 229.2611 282.8317 L 229.2611 352.4877 L 233.9371 352.4877 L 233.9371 341.9917 C 237.9451 348.0987 244.2421 353.6327 253.9751 353.6327 C 265.7121 353.6327 277.6391 343.9957 277.6391 328.1557 M 272.5821 328.3467 C 272.5821 341.4197 264.0901 349.1487 253.4981 349.1487 C 243.3841 349.1487 233.6511 340.7517 233.6511 328.2517 L 233.6511 328.0607 C 233.6511 315.6557 243.3841 307.1637 253.4981 307.1637 C 263.7081 307.1637 272.5821 315.3697 272.5821 328.1557" fill="black"/>
<path d="M 289.0891 330.0647 L 329.4511 330.0647 C 329.5471 329.3007 329.5471 329.0147 329.5471 328.3467 L 329.5471 328.1557 C 329.5471 313.7477 320.8641 302.6787 307.2181 302.6787 C 294.0501 302.6787 284.1271 313.9387 284.1271 328.0607 L 284.1271 328.2517 C 284.1271 343.4227 295.1961 353.6327 307.9821 353.6327 C 317.3331 353.6327 323.1541 349.8167 328.1151 344.4727 L 324.8711 341.6107 C 320.8641 345.9037 315.7111 349.2437 308.1731 349.2437 C 298.6311 349.2437 289.9471 342.1827 289.0891 330.0647 M 289.0891 325.8657 C 289.9471 315.0837 297.3901 306.9727 307.0281 306.9727 C 318.1921 306.9727 323.8221 316.0377 324.4891 325.8657" fill="black"/>
<path d="M 364.6611 308.2127 L 364.6611 303.0607 C 355.0241 302.6787 346.9131 308.9767 343.0961 317.6597 L 343.0961 303.8237 L 338.4211 303.8237 L 338.4211 352.4877 L 343.0961 352.4877 L 343.0961 332.5457 C 343.0961 316.7057 352.9251 308.2127 364.1841 308.2127" fill="black"/>
<path d="M 405.9781 338.6517 L 405.9781 338.4617 C 405.9781 329.5877 397.7711 326.6297 390.1381 324.3387 C 383.5541 322.3357 377.4471 320.5227 377.4471 315.8467 L 377.4471 315.6557 C 377.4471 311.5527 381.1681 308.4997 386.9891 308.4997 C 391.7601 308.4997 397.0081 310.3127 401.5881 313.2707 L 404.9281 307.7357 C 399.8711 304.3967 393.1911 302.2967 387.1801 302.2967 C 377.4471 302.2967 370.3861 307.9267 370.3861 316.4197 L 370.3861 316.6097 C 370.3861 325.6747 378.9741 328.3467 386.7031 330.5417 C 393.1911 332.3547 399.0121 334.2627 399.0121 339.2247 L 399.0121 339.4157 C 399.0121 344.1867 394.7181 347.2397 388.8021 347.2397 C 382.9811 347.2397 377.0651 344.9497 371.7221 340.9427 L 368.0001 346.1907 C 373.5351 350.6747 381.3591 353.4427 388.4201 353.4427 C 398.2481 353.4427 405.9781 348.0037 405.9781 338.6517 M 419.2391 330.5417 L 458.3621 330.5417 C 458.4571 329.6827 458.4571 328.9197 458.4571 328.2517 C 458.4571 313.7477 450.0601 302.1067 435.4611 302.1067 C 421.8161 302.1067 411.7971 313.5567 411.7971 327.8697 C 411.7971 343.2327 422.8651 353.6327 436.4151 353.6327 C 445.7661 353.6327 451.7781 349.9117 456.7401 344.3777 L 452.1591 340.2747 C 448.1521 344.4727 443.3811 347.2397 436.6061 347.2397 C 427.9231 347.2397 420.2891 341.2287 419.2391 330.5417 M 419.2391 325.1027 C 420.1941 315.4647 426.6821 308.3087 435.2701 308.3087 C 445.0981 308.3087 450.2511 316.1327 451.0141 325.1027" fill="black"/>
<path d="M 510.8421 344.0907 L 506.1671 339.7017 C 502.2541 343.9007 497.3881 347.0487 491.0901 347.0487 C 480.7851 347.0487 472.9601 338.5567 472.9601 327.7747 C 472.9601 317.0877 480.5941 308.5947 490.6131 308.5947 C 497.2931 308.5947 501.6821 311.9347 505.5941 316.0377 L 510.4611 310.8847 C 505.8801 306.0187 500.0601 302.1067 490.7091 302.1067 C 476.3001 302.1067 465.4221 313.9387 465.4221 327.9647 C 465.4221 341.8967 476.3001 353.6327 490.7091 353.6327 C 499.9641 353.6327 505.8801 349.6257 510.8421 344.0907 M 555.1171 331.4007 C 555.1171 340.6557 548.7241 346.8587 540.3271 346.8587 C 531.6441 346.8587 526.6821 341.1327 526.6821 331.9727 L 526.6821 303.1557 L 519.3351 303.1557 L 519.3351 333.7857 C 519.3351 345.5227 526.3001 353.5377 538.2281 353.5377 C 546.7201 353.5377 551.7771 349.2437 555.1171 343.9007 L 555.1171 352.4877 L 562.3691 352.4877 L 562.3691 303.1557 L 555.1171 303.1557" fill="black"/>
<path d="M 579.5441 332.8317 C 579.5441 317.9457 588.3231 310.2167 599.1051 310.2167 L 599.6781 310.2167 L 599.6781 302.2967 C 590.3271 301.9157 583.1701 307.8317 579.5441 316.0377 L 579.5441 303.1557 L 572.1971 303.1557 L 572.1971 352.4877 L 579.5441 352.4877" fill="black"/>
<rect x="608.1701" y="284.2627" width="8.397" height="8.111" fill="black"/>
<rect x="608.6481" y="303.1557" width="7.347" height="49.332" fill="black"/>
<path d="M 639.1801 309.6447 L 654.8291 309.6447 L 654.8291 303.1557 L 639.1801 303.1557 L 639.1801 288.2707 L 631.8331 288.2707 L 631.8331 303.1557 L 624.9631 303.1557 L 624.9631 309.6447 L 631.8331 309.6447 L 631.8331 339.4157 C 631.8331 349.4347 637.8441 353.3467 645.7641 353.3467 C 649.2951 353.3467 652.0621 352.5837 654.6381 351.2477 L 654.6381 344.9497 C 652.0621 346.1907 649.9631 346.6677 647.4821 346.6677 C 642.5201 346.6677 639.1801 344.4727 639.1801 338.4617" fill="black"/>
<path d="M 709.6951 303.1557 L 701.8701 303.1557 L 686.0311 344.2817 L 668.0921 303.1557 L 659.9811 303.1557 L 682.4051 352.2977 C 679.4471 359.2627 676.6791 361.5527 672.2901 361.5527 C 669.1411 361.5527 666.9471 360.9807 664.5611 359.7397 L 662.0801 365.5607 C 665.4201 367.1827 668.4731 368.0417 672.5761 368.0417 C 680.0191 368.0417 684.7901 364.3197 688.9891 354.1107" fill="black"/>
<rect x="707.5951" y="342.4687" width="8.779" height="10.019" fill="black"/>
<rect x="318.532" y="128.205" width="29.413" height="125.025" fill="black"/>
<path d="M 455.2754 188.5043 L 404.7004 253.2303 L 442.3624 253.2303 L 473.8504 212.2883 L 505.3154 253.2303 L 542.9844 253.2303 L 492.4174 188.5043 L 539.3824 128.2043 L 501.7054 128.2043 L 473.8504 164.1713 L 445.9794 128.2043 L 408.3104 128.2043" fill="#0089d1"/>
<path d="M 246.2914 253.2291 L 246.2914 176.7951 Q 246.2914 120.9751 185.6584 124.5821 S 125.0254 120.9751 125.0254 176.7951 L 125.0254 253.2291 L 154.4374 253.2291 L 154.4374 176.7951 Q 154.4374 151.0311 185.6584 151.6461 S 216.8794 151.0311 216.8794 176.7951 L 216.8794 253.2291" fill="black"/>
<path d="M 716.3738 204.659 L 716.3738 128.225 L 686.9618 128.225 L 686.9618 204.659 Q 686.9618 230.423 655.7408 229.808 S 624.5198 230.423 624.5198 204.659 L 624.5198 128.225 L 595.1078 128.225 L 595.1078 204.659 Q 595.1078 260.48 655.7408 256.872 S 716.3738 260.48 716.3738 204.659" fill="black"/>
</svg>
